<svg width="20" height="22" viewBox="0 0 20 22" fill="none" xmlns="http://www.w3.org/2000/svg">
<path d="M10.7143 3.4375C10.7143 2.67695 10.0759 2.0625 9.28571 2.0625C8.49554 2.0625 7.85714 2.67695 7.85714 3.4375V9.625H1.42857C0.638393 9.625 0 10.2395 0 11C0 11.7605 0.638393 12.375 1.42857 12.375H7.85714V18.5625C7.85714 19.323 8.49554 19.9375 9.28571 19.9375C10.0759 19.9375 10.7143 19.323 10.7143 18.5625V12.375H17.1429C17.933 12.375 18.5714 11.7605 18.5714 11C18.5714 10.2395 17.933 9.625 17.1429 9.625H10.7143V3.4375Z" fill="#666666"/>
</svg>
