<svg width="30" height="30" viewBox="0 0 30 30" fill="none" xmlns="http://www.w3.org/2000/svg">
<path d="M20.7941 8.56372C20.0423 7.81209 18.8269 7.81209 18.0751 8.56372L17.0417 9.59334L20.4027 12.9533L21.4361 11.9203C22.188 11.1687 22.188 9.9537 21.4361 9.20208L20.7941 8.56372ZM10.5222 16.1143C10.3128 16.3236 10.1514 16.581 10.0587 16.8659L9.0425 19.9136C8.94294 20.2087 9.0219 20.5348 9.24162 20.7578C9.46134 20.9809 9.78749 21.0564 10.0862 20.9569L13.1348 19.941C13.4163 19.8483 13.6738 19.687 13.8867 19.4777L19.6303 13.7324L16.2658 10.369L10.5222 16.1143Z" fill="#666666"/>
<rect x="0.5" y="0.5" width="29" height="29" rx="14.5" stroke="#666666"/>
</svg>
